<svg width="75" height="27" viewBox="0 0 75 27" fill="none" xmlns="http://www.w3.org/2000/svg">
<g id="Desktop_v2">
<g id="navi bar / scroll">
<g id="menu">
<g id="logo">
<g id="Group 1410093944">
<g id="Group 1410093943">
<path id="Union" d="M4.7464 23.1803L15.4772 24.9687L23.2926 16.7594L18.7103 5.70813L8.11699 3.57568L0 12.2431L4.7464 23.1803Z" fill="#121110"/>
<path id="Vector 234253996" d="M15.8113 19.8715L17.3184 8.03101L6.73619 12.1039L15.8113 19.8715Z" fill="white"/>
</g>
</g>
<path id="42ai" d="M35.7501 20.9998V17.1547H27.8222V15.2321L36.0093 5.66251H38.1263V14.9513H40.1785V17.1547H38.1263V20.9998H35.7501ZM35.7501 14.9513V9.20521L30.8033 14.9513H35.7501ZM51.6074 18.6668V20.9998H41.4545V20.1357C41.4545 16.7659 44.2412 15.2969 46.4877 13.6336C48.0647 12.4887 49.0584 11.6246 49.0584 10.0693C49.0584 8.70837 48.1295 7.73629 46.6174 7.73629C45.0836 7.73629 43.8739 8.72997 43.8523 10.3501H41.4545C41.4545 7.39066 43.7227 5.40329 46.639 5.40329C49.2096 5.40329 51.4562 6.95862 51.4562 10.0045C51.4562 12.4455 50.3113 13.7632 48.0647 15.3833C46.6822 16.4202 44.9756 17.2843 44.5868 18.6668H51.6074ZM52.3295 20.9998L59.0261 5.66251H61.2295L67.9261 20.9998H65.2906L63.5409 16.9819H56.6715L54.9433 20.9998H52.3295ZM57.6436 14.7353H62.5688L60.1062 9.054L57.6436 14.7353ZM69.4699 20.9998V5.66251H71.9973V20.9998H69.4699Z" fill="#121110"/>
</g>
</g>
</g>
</g>
</svg>
