<svg preserveAspectRatio="none" overflow="visible" style="display: block;" width="212.595" height="36" viewBox="0 0 212.595 36" fill="none" xmlns="http://www.w3.org/2000/svg">
<path id="Vector 234254459" d="M11.2283 3.65975L4.53981 11.0058C1.99507 13.8008 0.722706 15.1982 0.271522 16.7706C-0.125565 18.1545 -0.0862989 19.6271 0.38397 20.9878C0.918305 22.5339 2.26333 23.8616 4.95339 26.5169L11.2891 32.7709C12.4967 33.9629 13.1005 34.559 13.803 34.985C14.4258 35.3628 15.1038 35.6411 15.8125 35.8098C16.6117 36 17.4602 36 19.1571 36H193.438C195.135 36 195.984 36 196.783 35.8098C197.492 35.6411 198.17 35.3628 198.792 34.985C199.495 34.559 200.099 33.963 201.306 32.771L201.306 32.7709L207.642 26.5169C210.332 23.8616 211.677 22.5339 212.211 20.9878C212.682 19.6271 212.721 18.1545 212.324 16.7706C211.873 15.1982 210.6 13.8008 208.056 11.0058L201.367 3.65976L201.367 3.65965C200.14 2.31177 199.526 1.63782 198.793 1.15458C198.142 0.726259 197.425 0.409396 196.671 0.217035C195.82 0 194.908 0 193.085 0H19.5099C17.6869 0 16.7754 0 15.9243 0.217035C15.1699 0.409396 14.4528 0.726259 13.8027 1.15458C13.0692 1.63784 12.4556 2.31181 11.2283 3.65975L11.2283 3.65975Z" fill="#121212"/>
</svg>
